<?xml version="1.0" encoding="UTF-8" standalone="no"?>
<!-- Created with Inkscape (http://www.inkscape.org/) -->

<svg
   version="1.1"
   id="svg1"
   width="1800"
   height="1794"
   viewBox="0 0 1800 1794"
   xmlns="http://www.w3.org/2000/svg"
   xmlns:svg="http://www.w3.org/2000/svg">
  <defs
     id="defs1" />
  <g
     id="g1"
     transform="translate(0,-3)">
    <path
       style="display:inline;fill:#504a4e;stroke:none"
       d="M 33,3 V 21 H 3 v 1 h 30 l -1,264 -10,1 c 2.734066,1.39319 6.793461,2.04578 8.639818,4.67041 C 33.30365,295.45715 31.999998,302.61829 32,307 v 39 c 0,59.03931 -1,117.95715 -1,177 v 47 c 0,9.76575 1.688641,16.9209 -9,20 10.145885,7.07996 9,15.66809 9,27 v 51 231 l -9,1 v 1 l 9,2 1,300 -10,1 v 1 l 10,2 -1,283 h -8 v 1 c 16.461624,8.913 9,45.3762 9,62 0,61.072 -3.008232,123.0852 1,184 h 1 l 1,-243 23,-2 v -1 l -23,-2 1,-282 26,-1 v -2 l -26,-1 V 903 l 26,-1 v -2 L 36,899 V 593 l 22,-2 v -1 C 52.704079,589.77966 41.853287,590.12061 37.918381,586.0946 34.230343,582.32129 36,572.82886 36,568 V 519 290 l 23,-2 v -1 L 36,285 35,24 C 96.293076,19.965942 158.61929,21.705566 220,23.946533 247.44774,24.948608 275.7457,21.368774 303,25 l 1,23 h 1 l 2,-23 h 226 51 c 5.27698,0.0012 14.99518,-1.229004 19.08698,2.905396 C 607.19849,32.059692 606.05298,42.516968 607,48 h 1 l 2,-23 305,1 2,22 h 1 L 921.89081,27.028687 941,25 h 51 228 l 1,23 h 1 l 2,-23 h 283 l 1,23 h 1 l 2,-23 248,-2 -2,262 -24,2 v 1 l 24,2 v 224 53 l -1.9183,19.08179 L 1733,590 v 1 c 5.5641,0.0154 17.8743,-1.13098 22.0817,3.02869 3.29,3.25268 1.9183,10.78759 1.9183,14.97131 v 41 184 c 0,14.98773 0.3254,30.0166 -0.028,45 -0.1074,4.55725 0.4209,13.62775 -2.8906,17.13513 -4.1204,4.36395 -15.4707,3.49561 -21.0818,3.86487 v 1 l 24,2 v 300 l -24,1 v 1 l 24,2 v 282 l -24,2 v 1 l 24,2 1,259 -247,-1 -2,-25 h -1 l -1,25 h -282 l -2,-21 h -1 l -2,21 -300,-1 -1,-19 h -1 l -2,19 c -66.70978,0 -133.31567,1 -200,1 -34.70563,0 -70.55579,2.5933 -105,-2 l -3,-23 h -1 c -6.7e-4,6.6296 1.24713,17.2196 -3.68188,22.4673 -4.63532,4.935 -12.40516,2.6279 -18.31812,2.5456 C 569.67279,1751.7994 554.3288,1752 539,1752 H 376 331 c -5.75504,0 -14.59348,1.7397 -19.85083,-0.9874 C 303.4014,1746.9935 306.67084,1734.04 305,1727 l -3,23 -268,3 v -6 h -1 l -6,6 v 1 h 6 v 43 h 1 v -43 l 203,1 43,0.01 18.52209,2.3547 L 304,1767 h 1 l 7.22369,-10.0817 L 333,1756 h 46 227 l 1,10 h 1 c 2.48022,-11.9236 10.63214,-10 21,-10 h 52 235 l 1,11 h 1 l 2,-11 300,-1 1,12 h 1 c 9.3077,-18.6219 38.7396,-12 57,-12 h 165 c 14.3217,0 28.6824,-0.3098 43,0.028 9.7977,0.2308 17.243,0.4828 20,10.9724 h 1 l 4.5305,-9.6393 L 1529,1755 h 39 190 v 38 h 1 l 1,-38 40,-1 v -1 h -40 l 1,-260 9,-1 v -1 l -9,-1 v -283 l 11,-1 v -2 l -11,-1 V 903 l 11,-3 -11,-1 V 592 h 8 v -1 l -8,-2 V 289 h 9 v -1 l -9,-2 -6e-4,-191 -0.9994,-50 1.361,-19.41394 9.6391,-2.583374 L 1797,23 v -1 h -37 V 11 h -1 v 10 l -248,-1 -1,-11 -3,11 h -283 l -2,-10 -3,9 c -99.3633,4.12146 -199.5106,1 -299,1 l -2,-10 -3,9 -305,1 -1,-11 -3,11 H 307 L 306,9 303,20 34,21 33,3 m 487,190 c -4.68823,26.24451 0,54.1709 0,81 v 172 c 0,170.33704 -2,340.63953 -2,511 l -157,1 c 1.70547,5.80884 7.34442,8.64862 8.53665,15.00208 1.32779,7.07586 -0.5318,14.8225 -0.5365,21.99792 -0.0147,22.3635 -2.00015,44.6389 -2.00015,67 0,11.1962 -1.40462,29.255 -14.04311,34.9877 l -32.19709,1 c 17.19198,1.2907 33.52869,4.9762 52.2402,2.0123 V 961 L 474,962.02759 531,963 c -0.88666,-5.25439 -6.04102,-6.84576 -6.80341,-12.04779 C 521.71594,934.02606 524,915.11499 524,898 V 791 c 0,-74.59985 -1,-149.3363 -1,-224 0,-81.29944 -1.15015,-162.69189 -0.0129,-244 0.49542,-35.41907 -2.88531,-71.89514 2.01288,-107 h 296 c 24.95581,0.001 49.98816,1 75,1 6.17108,0 21.4165,-2.74683 26.0816,1.91833 2.64289,2.64295 1.91492,7.69666 1.91822,11.08167 l 2e-4,27 c 0,35.96875 0.50983,72.08179 2,108 h 141 l -7,16 8,-1 v 16 H 940 v 88 l 1,46 -12,1 c -0.12244,44.27075 -1,88.66602 -1,133 0,17.38049 -5.23553,40.0708 0.19678,56.80334 1.56897,4.83277 7.52044,4.73999 11.80322,5.04175 11.90155,0.83863 24.0705,0.1626 36,0.15479 2.70935,-0.002 15.0968,-2.02686 15.05298,2.30481 -0.0654,6.47143 -10.99854,5.69226 -15.05298,5.69519 -11.93469,0.009 -24.12421,-0.72144 -36,0.5581 -3.95258,0.42591 -8.98706,-0.0234 -11.95129,3.12586 -5.05555,5.37121 -3.36518,17.5553 -2.89399,24.31616 1.39533,20.01971 2.84528,39.81219 2.84528,60 -9.2926,0.0584 -20.6076,3.40594 -18,-10 l 8,1 1,-418 h -61 v -31 l 38,-1 -1.02576,-49 L 893,227 560,224 c 1.38898,33.45898 6.00951,66.35351 2.93281,99.82213 C 562.13786,332.46966 566.367,352.25476 560,359 v 6 l 75,-2 2,30 -30,0.0128 L 554,393 c 0,56.00549 -2.20813,112.04456 -1.99268,168 C 552.21527,615.00574 555,668.95557 555,723 c 0,27.97534 -0.63129,56.03302 0.0276,84 0.6156,26.12885 2.44519,53.05188 -2.02759,79 64.04224,0 127.98523,1 192,1 h 44 c 7.60968,0 14.41797,1.06989 19,-6 -6.83032,-3.11566 -5,-11.60321 -5,-18 0,-13.79736 -7.72424,-43.6441 8,-50 l 1,153 h -10 l 3,-72 c -62.71649,0 -125.31897,2 -188,2 -15.70099,0 -31.29047,-1 -47,-1 -7.12207,0 -14.45337,-1.17664 -20,4 h 5 l -2,90 -46,1 1,49 c -13.90964,-2.0303 -5.82962,-22.1083 -7.93437,-34 -0.85007,-4.8028 -0.3047,-10.02765 -5.26436,-13.0061 C 485.06302,986.14575 471.58661,989.83905 461,989.98712 435.67728,990.34131 410.32541,990 385,990 v -7 c -8.39969,3.55469 -6,14.37109 -6,22 v 64 c 0.002,31.6328 3.10269,63.3359 1.9465,95 -0.32928,9.0178 -5.36587,30.6929 0.41446,38.2627 3.46491,4.5375 20.22333,0.7373 25.63904,0.7373 22.71603,-2e-4 45.27014,2 68,2 6.00616,0 19.8866,2.5813 23.63901,-3.3516 3.56668,-5.639 0.37219,-16.2876 0.3616,-22.6484 -0.033,-19.8228 -1.41473,-40.2501 -6.1e-4,-60 9.57193,6.3687 7.45251,15.8915 8.15472,26 C 508.71176,1167.4137 507,1189.5913 507,1212 H 405 c -7.10291,0 -29.05826,4.8672 -33.63904,-1.5861 -4.00314,-5.6395 -0.96139,-17.998 -0.51568,-24.4139 1.23944,-17.8418 0.15472,-36.1145 0.15472,-54 -20.98615,7.7943 -49.73816,3 -72,3 -11.95319,0 -22.9975,1.1567 -34,-4 l -1,231 h 6 v -8 c 30.34567,0 60.67864,1.6866 91,0.9724 17.01588,-0.4008 33.0925,-2.2047 51.25154,-0.9728 10.57142,0.7172 38.64366,-4.4936 43.11345,9.4023 l 2.88655,10.6905 0.0346,-23.7303 L 446,1349.8452 416,1350 l -146,-3 1,-4 3,1 c 0.50156,-5.4956 2.50452,-7.4984 8,-8 v -3 c -5.84302,-1.7571 -5.30298,-4.8049 0,-7 l -8,-3 v -6 l 8,-3 c -7.76559,-0.9028 -7.89236,-6.2815 0,-7 -2.19482,-4.4661 -5.03458,-6.3809 0,-10 v -2 c -4.78931,-3.4491 -2.66745,-5.7297 0,-10 -15.01688,-6.5759 -13,-17.7383 -13,-32 v -65 l 84,-1 13.45738,-2.2577 L 269,1186 v -47 h 98 c 0,11.5486 6.41129,44.743 -8,47 l -4.65349,1.2515 c 19.5376,0.341 7.14043,23.7898 15.65349,35.7485 8.4165,-9.4128 21.46515,-7 33,-7 26.75757,0 53.30145,1.9657 80,2.9465 11.43704,0.4202 30.5163,5.3064 38,-5.9465 -13.52075,-3.5427 -9,-15.1467 -9,-27 v -51 c 0,-4.5808 2.16418,-15.3013 -0.51569,-19.0823 C 508.84836,1112.1989 498.10123,1113.053 494,1113 l -1,86 -70,2 0.96646,-137 -3.9382,-21 L 422,994 c 17.34125,0 34.67767,1.56433 52,1.97241 5.16119,0.12158 16.00732,-2.06512 19.97137,1.94599 5.8703,5.9399 1.60959,26.5882 0.53318,34.0816 -0.48041,3.3442 -2.25162,8.0593 -0.11585,11.1411 2.9141,4.205 11.89035,5.96 16.6113,6.8589 -6e-5,-13.7207 0.64893,-27.3207 0.97241,-41 0.11707,-4.9501 -1.26587,-12.29327 4.22437,-14.85657 8.42102,-3.93158 23.05792,0.1377 31.80322,1.67359 3.90863,0.68646 10.74243,2.67828 13.49597,-1.4032 2.45069,-3.63257 0.10974,-9.487 -0.42309,-13.41382 -1.37256,-10.11517 -1.97443,-20.79456 -2.06812,-31 -0.0356,-3.8858 -1.82092,-11.87341 2.40027,-14.0816 5.01166,-2.62171 14.07214,-0.91877 19.59497,-0.9184 5.08368,3.1e-4 10.00354,-0.0235 15,1 l -2,13 h 4 c 1.06335,-5.60754 1.94019,-9.81763 7,-13 v 15 h 1 c 0.0518,-6.89569 0.63568,-12.74506 8,-15 l -3,15 c 4.31274,-3.31403 4.56207,-8.84369 8.40308,-12.56934 C 625.66724,932.35461 637.11176,934.99713 645,935 l -1,16 c 4.70459,-4.00104 1.8645,-8.81598 4.59351,-13.41394 3.0509,-5.14032 16.62274,-2.56598 21.40649,-1.58606 -1.89893,5.67712 -2.29065,10.39398 0,16 3.43079,-6.18579 2.53674,-12.92664 10,-16 l -1,15 h 1 c 3.49823,-14.77063 11.88226,-16.99481 26,-17 l -2,15 12,-15 -1,17 h 1 l 2,-17 h 6 c -1.59662,6.08783 -5.00885,12.51044 1,17 2.39099,-19.52118 13.42743,-17 30,-17 l -1,17 c 4.87012,-3.99323 4.34473,-10.32495 3,-16 h 42 v 31 c -56.98761,0 -114.01715,3.21222 -171,2.99805 -13.52454,-0.0509 -27.47461,-0.38623 -41,-1.09278 -6.42157,-0.33545 -25.49525,-2.1213 -30.32545,3.2205 55.04144,0 122.31813,0.46133 177.32545,0.8796 27.75293,0.21106 56.43048,3.77631 84,-1.00537 -5.89691,-53.51709 -1,-108.09619 -1,-162 l -13,3 h -1 c -5.24078,-5.13843 -12.12219,-4 -19,-4 -14.0332,0 -28.00519,0.99689 -42,1 -45.375,0.0101 -91.00304,-1.13809 -136.37731,-1.13809 -11.53857,0 -23.14277,1.94168 -34.62269,0.80575 -3.39508,-0.33593 -9.48938,0.15064 -11.98694,-2.58587 C 556.07214,802.8595 557.99908,794.08301 558,790 L 558.2668,733.90515 558,697 c -0.0465,-6.43635 -1.71826,-14.73438 4,-19 L 557.90909,734.37747 606,736 l 1,-58 c 41.37354,0 82.65741,-1 124,-1 9.90198,0 19.24353,0.59937 29,2.37524 4.21124,0.76648 9.84778,2.46058 13.62091,-0.41674 3.71344,-2.83179 2.55115,-7.97168 2.07355,-11.9585 C 774.57697,657.67175 774,648.39111 774,639 c 0,-36.34729 -0.14868,-72.64514 -1.81769,-109 -0.56439,-12.29333 9.53278,-27.30981 -3.18231,-35 -5.91699,12.87415 -38.77942,7 -51,7 -52.35944,0 -104.62396,-2 -157,-2 v -42 h 1 v 39 h 44 l 1,-58 c -16.16412,-0.67053 -30.24347,-3.14246 -46,2 l -2,-41 25,-0.005 56,1.00537 -1,-40 c -15.935,-1.54993 -31.98468,-2 -48,-2 -6.28961,0 -15.5108,1.65857 -20.70197,-2.68384 -6.26674,-7.11808 -2.03456,-22.78082 -2.94767,-31.87187 C 564.21464,293.22486 569,261.39014 569,230 l 321,-1 -2,132 -126,-1 -31,-0.0127 -10.58557,1.02576 L 719.94672,371 721,399 c 26.66667,-0.66239 52.70448,1.1434 80,-0.2264 39.32953,0.58348 74.64009,-0.32736 112,1.2264 v 13 l -62,1 c 0,19.87866 -0.7049,40.17322 -2.15668,60 -0.61938,8.45874 -5.13708,19.50208 -2.15991,27.80054 2.17481,6.06189 7.37036,1.62817 11.41132,0.8916 7.61834,-1.38867 12.4364,2.08032 13.98205,9.31055 C 875.81995,529.51221 873,550.12659 873,568 v 109 h 42 l -1,133 -6,-1 -1,17 h 24 l -2,-14 h 54 l 1,-45 0.3515,-23.89795 9.52228,-7.12793 L 996,724 980.9184,722.08167 979,710 979.99988,678 981,535 l 30,1 v 5 h 3 l -1,-48 2,-95 98,1 c -1.0532,16.00562 -2.4408,31.96899 -3.0529,48 -0.1755,4.59729 -2.8617,13.0437 0.4139,16.97144 4.7898,5.7434 23.8579,3.02856 30.639,3.02856 25.4344,0 52.1751,-1.52254 77.5031,0.37834 8.8199,0.66199 25.0549,1.02693 31.4969,-6.37834 -4.6958,-3.50293 -0.9799,-8.58423 -0.9815,-14 0,-10.56189 -3.8211,-21.50146 -2.5631,-32 0.4661,-3.88977 0.4135,-10.17334 3.4353,-13.08167 C 1254.8405,397.15442 1270.5347,400 1277,400 c 6.1798,0 16.4925,-2.33505 20.4139,3.35156 6.469,9.38102 1.1506,30.37247 1.5915,39.64844 1.7744,37.33296 -2.0054,74.61523 -2.0054,112 0,10.04236 0.3583,20.04382 -1.1526,30 -0.5052,3.32947 -2.6775,9.23425 0.125,12.02612 3.6038,3.59021 19.7562,-1.0249 25.0276,-1.02612 h 77 l -2,126 -69,3 v 1 l 74,2 c 4.8759,-27.84155 2,-57.80261 2,-86 V 490 431 c 0,-12.50684 -1.3958,-24.48755 4,-36 l -51,-1 h -89 v -12 c 7.8474,-0.95837 10.4875,-6.53796 1,-7 l 1,-12 164,1 1,620 h -4 v 6 l 154,-1 v 394 l -1018,1 v -32 c 12.38086,0 24.6427,0.8392 37,1.0129 3.9823,0.056 10.73193,2.1441 14.17828,-0.3867 3.4455,-2.5303 3.74384,-9.7558 4.33039,-13.6262 2.00464,-13.2277 1.5874,-26.66 1.48596,-40 C 622.68573,1258.3767 620,1217.7594 620,1177 v -31 c 6e-5,-3.9795 -1.02179,-9.9722 1.36096,-13.4415 6.07318,-8.8427 28.29852,-6.0299 29.49573,5.4437 C 655.23816,1179.9929 649,1223.877 649,1266 c 0,29.3782 -1,58.6367 -1,88 l 128,1 v -218 l -47,1 v -7 l 59,-2 c 0,54.6997 1,109.3407 1,164 0,12.8669 0.99426,26.2048 -0.44775,39 -0.61676,5.4724 -2.45826,12.9039 2.10595,17.2363 4.70667,4.4676 12.62799,2.3153 18.3418,1.9185 12.89545,-0.8959 26.07483,-0.1548 39,-0.1548 54.33154,0 108.62024,2 163,2 v -5 h -8 v -217 c 15.6632,-0.2212 16.9998,-9.4421 17,-23 13.1465,-0.2272 13.0006,-9.0267 13,-20 -7e-4,-15.3562 -1.6958,-30.6631 -2.175,-46 -0.2563,-8.2003 4.1696,-18.5186 -3.825,-24 l -4,3 v 1 c 8.5537,5.3821 5.3618,15.3569 5.7625,24 0.6058,13.0725 0,25.9712 -0.7884,39 -0.3022,5.0122 -0.2298,12.4972 -3.7976,16.4417 -2.9231,3.2316 -8.2115,3.4464 -12.1765,4.5583 v 1 h 6 l -3.5861,15.639 L 991,1124 l -62,1 4,-20 -20,-1 c 0.22241,5.3136 2.98761,12.8307 0.36224,17.7466 -2.28466,4.2781 -7.1969,4.4529 -11.45697,4.239 C 891.20123,1125.448 880.75366,1124 870,1124 v 19 h 112 v 20 l -39,0.3323 c -21.52312,0.8667 -11.28983,0.5879 -13.83622,1.1483 L 928,1183 v 50 h 2 l 0.50308,-68.2515 L 981,1165 v 29 h -3 v -6 c -4.44263,0.4133 -6.23785,1.5042 -7,6 h -2 l -1,-26 h -1 v 26 c -6.8576,0.9137 -21.64966,-1.8739 -24,6 6.3269,0 16.02179,-1.7344 21.6485,1.6838 6.27637,3.813 4.76111,22.3691 -0.84528,26.1897 -6.58447,4.4873 -27.04535,4.4723 -30.53662,-3.9702 -2.07068,-5.0074 -0.28839,-11.6199 -0.26855,-16.9033 0.0477,-12.7053 -1.55512,-26.5166 1.00195,-39 -3.44788,4.3496 -1.93903,11.7188 -2.01288,17 -0.16321,11.6677 -7.72119,43.2339 7.01288,47 l -10.84979,1 -0.33202,1.1107 L 981,1234 v 29 H 791 v -11 h 3 v -7 h 8 c -1.53027,-3.8645 -4.10034,-3.9133 -8,-4 v -6 h 8 c -1.13568,-3.8823 -4.30432,-3.8821 -8,-4 v -6 h 8 l -8,-4 8,-5 -7,-10 h 7 l -7,-10 h 7 l -10,-9 c -1.35132,-13.8912 -2.63715,-28.0242 -1.90527,-42 0.29547,-5.6426 0.18872,-12.3043 4.90527,-16 l -6,-6 -1,4 -67,-5 3,17 46,4 v 12 h -36 l 1.8e-4,35 c 0.005,4.7733 -0.61181,10.657 4.1966,13.4139 9.36871,5.3719 23.60064,-0.3722 33.80322,1.5861 l -1.02759,38 L 769,1309 h -28 l -5,-32 h -1 l -3,8 h -1 c 0.0336,-12.1327 4.15936,-26.8884 -2.52869,-37.9663 -6.98535,-11.5702 -22.17834,-10.61 -28.51812,0.9813 -5.7226,10.4629 -3.4549,22.8048 -1.95319,33.985 h -1 c -2.0484,-11.0566 -4.22943,-24.4102 0.76959,-34.9994 9.23645,-19.5653 28.11029,-13.1888 36.23041,2.9994 h 1 c -3.76855,-19.7383 -29.46149,-26.7472 -40.30603,-7.994 -6.41992,11.1017 -2.91467,24.9249 -3.11676,36.994 -0.0901,5.3824 -3.3396,9.8005 -4.21429,15 -0.94483,5.6165 0.40374,11.375 0.63708,17 l -32,-1 c -0.067,-61.9075 -7.00214,-123.4167 2,-185 h -45 v 5 h 3 l -1,217 -53,-1 c 0.005,14.3724 4.4386,29.4921 -8,40 v 1 l 689,2 224,1 h 74 l 46,2 c 0,-101.3279 -4.3848,-203.8464 0.9053,-305 1.1963,-22.875 0.095,-46.0923 0.095,-69 0,-10.7259 -1.9941,-23.21625 3,-33 -38.2814,0 -76.7914,1.80902 -115,-0.84528 -8.1617,-0.56695 -30.0697,3.93872 -36.0817,-2.07312 -2.6428,-2.64282 -1.9149,-7.69665 -1.9182,-11.0816 L 1438,942 V 827 c 0.01,-154.25342 1,-308.67896 1,-463 l 16,-3 v -1 l -16,-1 c -0.672,-4.27759 -1.9777,-6.30457 -6,-8 v 8 c -50.0842,3.29553 -100.8752,0.71387 -151,0.0128 C 1216.0288,358.09009 1149.9784,359 1084,359 H 980 c -13.23511,0 -31.48059,4.32239 -43.97961,-0.52905 C 924.99011,354.18958 928,338.38818 928,329 c 0,-28.70227 3,-57.2959 3,-86 0,-9.06128 4.84448,-34.4458 -8.01563,-34.9386 -8.65228,-0.33154 -17.31781,1.86743 -25.98437,1.93323 -36.3833,0.27649 -72.67358,0.62561 -109,1.9519 C 730.83356,214.03369 673.2088,212 616,212 c -21.65442,0 -43.40808,0.65466 -65,-0.84534 -7.00928,-0.48694 -17.4519,2.25476 -23.66541,-1.60827 C 521.97302,206.21301 522.07245,198.5542 522,193 h -2 m 743,170 c 0.317,4.24622 0.6322,9.66992 -5,7 -6.7826,3.93237 -17.3589,2 -25,2 -18.1825,0 -35.9412,0.10339 -54,-2.03931 -5.2421,-0.62194 -9.8879,0.78015 -15,-0.96069 -5.5967,4.4364 -18.1239,2 -25,2 h -67 c 1.8057,-6.52063 7.132,-5.99426 13,-5.99988 10.6859,-0.0102 21.3531,-0.31885 32,-1.23462 48.1832,-4.14416 97.6714,-0.1416 146,-0.7655 m -408,0 -1,32 c -31.6994,0 -63.34094,1 -95,1 -7.31451,0 -27.36981,3.52087 -33.05408,-1.36096 -2.33465,-2.00513 -1.26452,-6.00574 -1.0979,-8.63977 C 725.30969,378.70093 725,371.31104 725,364 l 130,-1 m 385,10 v 2 h -37 l 37,-2 m -77,2 v 1 l -40,3 v 1 l 142,2 v 13 l -195,1 1,-16 49,-1 v -1 l -34,-1 c 22.5437,-7.01575 53.4906,-2 77,-2 m 8,0 -1,1 1,-1 m -161,23 1,133 c -5.4794,0 -23.08734,3.35583 -26.63904,-0.92029 C 981.1936,526.26624 983,516.68909 983,512 h 14 v -4 c -5.61115,-0.0908 -10.44611,-0.44983 -13,-6 l 14,2 v -1 c -5.94348,-2.25623 -15.26343,-1.87878 -14,-10 l 15,4 v -4 c -4.27948,-0.68542 -11.7616,-1.31812 -14.64441,-4.96985 -3.69873,-4.6853 -4.37189,-22.15369 1.07575,-25.66907 C 989.216,459.91882 994.88898,461.29163 999,462 c -4.05457,-4.46692 -11.4198,-3 -17,-3 v -22 l 17,3 v -6 l -17,-1 v -7 l 16,3 c -4.10938,-3.1156 -10.69507,-2.47461 -13.97131,-6.53247 -4.31366,-5.34265 0.93359,-12.7052 -2.51648,-18.01392 -2.04737,-3.15039 -4.93976,-0.9226 -6.0597,1.66944 C 973.45563,410.74475 974.80109,416.16223 975,421 h -17 v 1 c 6.74976,2.56262 14.33704,2.39307 17,10 l -17,-1 v 1 l 17,2 1,24 -20,2 v 1 l 20,1 v 25 l -19,-4 v 1 c 9.01843,0.61926 18.07043,2.6073 19,13 -8.06543,-0.98779 -13.73291,-4.12646 -21,1 6.97101,0.16895 20.52509,-0.43994 22,8 l -20,-3 v 1 c 5.11414,1.7345 12.12421,1.39612 16.56671,4.53247 5.3631,3.78626 3.78204,18.55628 -1.76349,21.59363 C 964.20703,534.28662 953.22357,531.02271 945,531 l 2,-132 63,-1 m 231,2 c 0.08,12.83276 1.0725,26.22986 2.3323,39 0.562,5.69666 2.4372,14.63672 -1.361,19.57056 -6.2858,8.16491 -23.4142,2.79528 -31.9713,2.48291 C 1179.4081,459.93652 1148.6063,459 1118,459 l -1,-60 124,1 m -107.9999,0.6853 c -20.2713,4.53894 -14.5206,37.224 5.9998,32.6294 20.2716,-4.53894 14.5205,-37.224 -5.9998,-32.6294 M 1317,400 v 1 c -2.3624,0.44434 -5.6644,0.89111 -6.1748,3.81421 -0.6328,3.62427 2.0149,8.35583 2.1412,12.18579 0.3695,11.20471 -0.8188,22.52026 -4.9664,33 l 27,2 c -7.9158,13.10095 -19.9795,34.82764 -33,43 0.3419,-31.65806 1.2735,-62.72651 1,-95 h 14 m 82,124 h -1 c -3.639,-17.76343 -1.3981,-38.88525 -0.9724,-57 0.2318,-9.8656 2.2318,-19.82666 -9.0276,-24 v -9 h -1 c -3.3053,14.70349 -37.0983,11.43823 -49,9 v 5 h -21 c -0.4207,-10.05383 -8.2771,-30.99878 -0.1261,-39.23633 3.7535,-3.79333 10.313,-2.58252 15.1261,-2.91833 12.0955,-0.84388 23.8414,-1.93238 36,-1.83997 4.1984,0.0319 11.6541,-0.53406 15.0869,2.34265 4.2547,3.56531 3.6975,16.46167 3.9131,21.65198 h 1 l 4,-25 -59,-1 c 14.0865,-6.18042 33.1116,-0.53564 48,-1.05408 5.2833,-0.18396 13.0239,-2.71106 16.7338,2.48548 5.5405,7.76086 1.2663,23.59985 1.2662,32.5686 v 88 M 1135.9995,404.823 c 16.25,0.27991 17.345,27.31714 5e-4,27.01867 -16.6628,-0.28674 -17.2168,-27.31518 -5e-4,-27.01867 M 1190,408 l 1,5 h 1 c 6.2148,-7.87256 23.1375,-3.58313 32,-3 v 6 l -30,-1 c 6.1587,7.1488 18.4886,5 27,5 v 10 h 4 v 10 h 1 v -20 h -1 v 9 h -3 l 4,-20 -36,-1 m -55.9005,3.172 c -7.813,2.56897 -4.2572,14.42236 3.7633,12.09558 7.9906,-2.31812 3.9893,-14.64466 -3.7633,-12.09558 m 0.4047,4.93689 c 3.2243,-1.34143 5.0213,3.75842 1.9916,5.10717 -3.097,1.37879 -5.0672,-3.82763 -1.9916,-5.10717 M 913,417 v 59 c 0,4.82507 2.20734,17.23352 -1.9184,20.63904 -3.54876,2.92932 -11.78369,1.31372 -16.0816,1.37378 -13.32428,0.1864 -26.67419,1.81518 -40,1.98718 l -2,-84 60,1 m 282,3 -4,6 1,-3 h -1 l -1,18 h 1 l 4,-21 m 2,9 v 1 h 9 l -9,-1 m 6,7 v 3 h 1 l -1,-3 m 9,0 1,1 -1,-1 m -404,44 1,-4 c 4.92004,2.97351 12.80322,9.33728 18.83044,8.8584 8.02051,-0.63733 19.87879,-24.53662 17.19172,-31.78589 C 841.01001,442.24854 816.42621,440.07239 807,442 v -1 l 18,-3 c -27.4046,-8.52844 -44.93231,34.6001 -17,42 m 397,-41 v 1 h 3 l -3,-1 m -8,2 v 1 h 13 l -13,-1 m -390,1 -2,2 2,-2 m 12,0.86768 c 6.95093,0.12732 19.20624,4.43957 20.83203,12.19177 1.26746,6.0437 -5.80334,25.38135 -12.96045,25.44971 -7.81909,0.0747 -20.77899,-6.11463 -23.84289,-13.53882 C 798.51276,456.02783 807.19836,442.65161 819,442.86768 M 574,445 c -2.3736,4.68372 -6.79126,9.44543 -6.54529,14.99939 0.64319,14.52332 23.6048,15.14197 27.27655,1.97095 C 596.46027,455.76831 591.73401,450.13977 589,445 h 11 l 1,48 h -37 l 1,-48 h 9 m 820,144 -88,-2 c -1.8335,-27.86511 -2.7585,-58.38672 2,-86 8.0392,0 16.0348,-0.2467 24,1.02686 3.1772,0.50793 7.5464,2.15356 10.412,-0.0527 3.9304,-3.02612 1.806,-9.83191 1.6395,-13.97412 -0.564,-14.03186 -1.0515,-27.93298 -1.0515,-42 12.0367,0 23.9604,1 36,1 3.881,0 10.8553,-1.27332 14.0869,1.36096 6.4734,5.27686 3.0064,28.05823 2.9003,35.63904 -0.4901,35.03784 -3.4393,69.99231 -1.9872,105 M 582,451 v 1 c -10.45221,6.65527 -1.32751,14.98901 7,6 6.31616,20.64075 -30.60071,8.09509 -13.54376,-4.75867 1.97369,-1.4873 4.18054,-1.85217 6.54376,-2.24133 m 398,1 v 6 h -1 l 1,-6 m 361,0 c 0,10.35376 -0.9801,20.62793 -1.0006,31 -0.01,3.96252 0.5377,9.06641 -2.6832,12.02478 C 1331.4688,500.39551 1318.3044,498 1311,498 c 4.6692,-15.50098 15.4808,-37.79407 30,-46 m -759,6 2,4 -5,-1 3,-3 m 398,10 v 3 h -1 l 1,-3 m 186,8 c -0.3359,13.86047 -10.3175,23.32739 -3.5585,36.99451 10.3773,20.98352 38.0629,13.43493 44.5585,-5.99451 l -5,-1 c 1.3331,-5.44531 6.0812,-14.26929 4.6411,-19.77271 -1.0514,-4.01794 -6.2488,-5.38378 -9.6413,-6.65625 C 1186.0757,475.47363 1177.4399,474.00208 1166,476 m 7.3071,5.91833 c 6.0275,-2.7843 21.1935,-1.75488 25.5664,3.71009 6.216,7.76819 -0.6071,25.52087 -8.9329,29.13012 -19.2881,8.36158 -33.1457,-25.21264 -16.6335,-32.84021 M 979,484 v 3 h -1 l 1,-3 m 0,10 v 4 h -1 l 1,-4 m 0,9 v 3 h -1 l 1,-3 m -234,1 v 1 h -8 l 8,-1 m 168,1 1,168 H 876 V 505 h 37 m -351,1 -2,3 2,-3 m 22,0 v 1 h -9 l 9,-1 m 36,0 -10,8 -2,-8 h 12 m 146,163 c -22.67969,0 -45.37762,0.91309 -68,0.99805 -5.74347,0.0216 -19.36145,2.49133 -23.97137,-1.35901 C 670.4599,665.65833 672,657.10254 672,653 c 0,-11.14099 0.42322,-21.95361 2.00195,-33 0.66571,-4.65808 3.06079,-11.396 0.6095,-15.80127 C 671.0047,597.71692 662.49622,601.84875 657,602.61218 640.13025,604.95532 622.90155,603.40735 606,603 l 1,-77 20,2 -3,-19 c 33.70422,0 67.33057,-1 101,-1 9.03925,0 29.68829,-3.63013 37.10919,2.35559 2.79059,2.25098 2.71582,7.40747 2.83716,10.64441 0.3739,9.9751 0.0536,20.01807 0.0536,30 0,39.36023 1,78.62195 1,118 M 1165,509 v 4 h -1 l 1,-4 m -558.00005,4 c -6.11896,22.09521 -5,45.2655 -5,68 l -38,-2 2,-69 41,3 m 15,-2 c -1.57648,6.8136 -3.89166,11.21753 -11,13 l 11,-13 m 353,211 -44,-1 c -4.0191,-61.07251 0,-122.83838 0,-184 h 30 l 11.63904,1.91833 L 974,552 v 35 l 1,135 M 561,559 v 19 h -1 l 1,-19 m 605,17 c -5.2656,28.4231 -8.3109,57.43433 -13.6263,86 -1.5131,8.13147 -8.0733,23.84924 -3.0127,31.50867 2.6563,4.02063 8.4819,3.34338 12.639,3.58471 9.6313,0.55909 19.4429,2.53846 29,3.90845 40.5415,5.81165 80.5889,15.07752 121,20.99817 3.804,-28.31689 7.0773,-56.74731 11.2917,-85 1.8058,-12.10571 -0.4089,-25.93396 14.7083,-26 -3.0272,-10.65247 -33.288,-10.09998 -43,-11.3053 -31.2473,-3.87793 -62.9928,-5.56665 -94,-11.13733 -12.2917,-2.20825 -26.6606,-2.36902 -35,-12.55737 m -606,74 h -2 c 0.0433,-15.64429 1,-31.30737 1,-47 0,-4.85193 -1.75208,-14.0741 0.9184,-18.31812 2.07641,-3.29992 8.23889,0.67286 11.0816,1.06763 5.44696,0.75647 29.44049,-6.22082 29.52209,3.31934 0.0419,4.90625 -5.85363,5.76501 -9.5227,5.42517 -7.90772,-0.7323 -20.71051,-6.17407 -27.06537,1.09509 -4.18713,4.78967 -2.08642,11.72046 -1.96222,17.41089 0.26941,12.33972 -1.97162,24.63306 -1.9718,37 m 595,43 c 0.1577,-25.17188 6.1875,-50.91992 8.6676,-76 0.8064,-8.1543 -1.2115,-20.92773 5.1787,-27.31616 7.3797,-7.37744 25.4086,-0.0773 34.1537,1.12231 29.0907,3.9906 58.1189,9.2749 87,14.56873 7.9326,1.45398 25.5624,0.45471 30.9713,7.15747 4.3923,5.44311 1.0582,16.39966 -0.3552,22.46765 -4.208,18.06482 -6.7771,36.70618 -9.8646,55 -0.8745,5.18164 -0.8033,19.46338 -6.2835,21.98694 -9.3386,4.30029 -29.4446,-1.81616 -39.468,-2.88562 C 1228.5208,705.20898 1191.6467,693.88391 1155,693 m 242,-103 c -5.1401,4.79712 -11.363,3.99988 -18,4 -13.0317,1.2e-4 -25.9581,-1 -39,-1 l 20,-2 37,-1 m -797,76 -34,1 -1,-68 c 9.44116,-0.39502 24.00494,-6.56384 32.70197,-1.30371 6.30523,3.81348 4.0473,13.30237 3.53253,19.30371 C 599.84973,633.14319 600,649.79126 600,666 m 68,-57 1,54 C 659.60291,659.23669 653.18732,650.89868 646.00012,644.09534 633.64905,632.40393 618.52905,622.06396 610,607 l 58,2 m -60,2 c 20.07129,15.30811 41.06464,38.96997 55,60 -12.70636,0 -25.2962,1 -38,1 -4.34344,0 -11.40979,1.30872 -15.31616,-0.91833 C 605.46277,668.67517 607.00006,660.01648 607,656 c -1.2e-4,-13.7478 -3.09113,-31.85315 1,-45 m -48,56 c 7.09784,6.41272 18.99506,4 28,4 v 1 h -29 l 1,-5 m 40,18 1,47 -37,1 v -13 c 4.83173,2.05725 9.49097,5.38159 14.99792,4.70813 13.50391,-1.65149 14.36445,-22.04407 1.99598,-26.24695 C 574.92902,696.40027 568.90289,701.0238 564,704 l 1,-19 h 35 m -22,18 v 1 c -9.62994,8.28516 -2.84125,14.58643 7,8 4.69153,17.60132 -28.27509,9.58081 -13.33228,-5.26111 1.8194,-1.80713 4.01966,-2.75073 6.33228,-3.73889 m 2,12 -4,-4 4,4 m 709,51 c 0,-10.47546 -4.1521,-26.66516 10,-27 l -3,226 99,4 c 0,-47.29688 1.9686,-94.71747 1.9999,-142 0.017,-26.42419 -4.3032,-57.11292 1.0001,-83 h 1 c 0,73.65857 -1,147.30066 -1,221 v 51 c -5e-4,8.024 0.5839,15.572 -8,19 v 1 c 10.6936,5.064 7.6224,15.2544 6.4554,25 -2.0701,17.2871 -0.4554,35.5956 -0.4554,53 l -126,1 3,-77 62,-0.9999 56.3563,-1.2517 1.2577,-2.5092 L 1272,1033 v -4 h -6 v 5 h -4 v 4 h 4 l 1.002,51 0.08,19.9463 L 1259,1119 l 8,-1 4,6 c 2.3523,-8.4358 15.9437,-5 23,-5 23.7059,0 47.2913,1 71,1 v 2 l -31,2 c -1.3883,10.5032 0.8784,19.0549 4,29 l -5,-3 c 4.887,18.5388 29.6946,25.3979 42.2594,8.9314 3.8602,-5.0588 3.734,-10.8806 3.7406,-16.9314 l -5,1 -2,-23 h 24 v 63 l 16,1 c 5.151,-6.905 19.198,-4 27,-4 0.7752,-14.4839 1.2352,-35.9815 -1,-53 0.01,-41.3734 1,-82.6241 1,-124 30.0518,0 59.9778,2.1109 90,1.998 9.5217,-0.036 26.5398,-4.9193 34.5087,1.9359 5.656,4.8656 3.4913,16.4273 3.4913,23.0661 v 61 c -9e-4,84.632 -2,169.3298 -2,254 l -127,-2 c 0,-21.3805 -2,-42.6166 -2,-64 0,-4.8406 3.7677,-19.6333 1.3965,-23.0815 -1.7964,-2.6125 -6.7018,-1.9106 -9.3971,-1.9178 -7.257,-0.019 -23.7031,-3.039 -28.6182,3.5884 -4.5945,6.1953 -1.3202,18.3665 -0.3812,25.4109 l -357,-1 2,-82 c 24.7015,0 49.3363,1 74,1 12.9612,0 24.9747,3.1514 25,-13 h 16 v -86 l -20,4.7358 -41,-2.7358 v -20 c 9.9563,8.8892 20.5748,7.0341 33,7 v 1 l -8,3 v 1 c 8.2041,-1.4377 15.7524,-2.1655 21.4238,-9.1102 10.5832,-12.9593 2.5429,-32.3517 -12.4238,-36.8898 -5.5631,6.5862 -12.8514,-1.8584 -19.9033,-0.1479 -7.064,1.7133 -10.749,18.8747 -12.0967,25.1479 h -1 l 2,-78 h 1 c 3.8126,13.3104 9.6387,32.9419 26,34 -2.8003,-21.8657 -17.2657,-44.54883 -25.3054,-65 -3.5712,-9.08429 -6.1081,-17.88739 -16.6946,-20 l 14,48 c -9.0524,-4.41193 -16.3193,-3.23334 -26,-3 v -14 h 8 L 1075.0259,965.96704 1074,944 924,943 c -1.08215,16.44354 -2.37598,32.896 2,49 h -13 l 3,50 14,1 -1,-20 93.6956,-0.8221 4.4467,-4.5573 c -19.0438,0 -56.11251,2.3794 -75.1423,2.3794 -7.547,0 -17.81812,1.9811 -24,-3 h -1 l -1,19 h -8 c -1.8e-4,-9.5383 -5.5108,-31.8755 2.67847,-38.97675 3.25445,-2.82208 9.24731,-2.82 13.32153,-2.96972 10.97327,-0.40332 22.01953,-0.0535 33,-0.0535 42.9825,0 85.9722,1 129,1 L 1098,1018 h -61 c 0,21.0229 2.281,41.9951 1.9872,63 -0.1057,7.5562 -3.7639,19.0903 1.8867,25.4128 6.8594,7.6751 21.2579,3.6167 30.1261,3.5872 27.9503,-0.093 55.9906,-1 84,-1 -0.2407,18.6499 -1.9998,37.3374 -2,56 -10e-5,7.6255 1.7963,16.9169 -5,22 l -1,-70 -112,-3 v 6 h 3 l 1,227 h -4 v 7 c 87.62,0 175.4221,-0.9659 263,-2.9723 20.6244,-0.4724 42.3562,-0.013 63,1.067 14.8833,0.7785 31.7954,3.5119 46,-2.0947 -5.2097,-5.7334 -2.912,-13.7585 -3.0128,-21 -0.2284,-16.397 -4.096,-32.5972 -3.9817,-49 0.036,-5.1503 -0.334,-14.2699 3.8175,-18.0815 6.0237,-5.5308 22.7329,-1.2273 30.177,-0.9185 0,20.3398 -1.0331,40.6985 -2.0947,61 -0.5554,10.6204 -3.0523,22.877 1.0947,33 14.5903,-6.8784 29.2529,-4.4785 45,-5.0535 29.4258,-1.0744 61.929,-4.9016 91,1.0535 2.26,-9.522 1,-20.2513 1,-30 v -54 -175 c 0,-22.3606 0.2614,-44.6914 -0.9053,-67 -0.3686,-7.0483 1.6212,-18.0528 -2.0078,-24.4139 C 1563.7539,994.7439 1541.1648,999 1535,999 c -24.3054,0 -49.8492,4.0153 -74,1.7601 -11.3976,-1.06424 -25.666,-6.97934 -35,2.2399 h 6 l 1,48 c -7.8655,0 -24.7333,3.1372 -29.2344,-5.2439 -2.9867,-5.561 -0.7763,-13.7065 -0.7662,-19.7561 l 6e-4,-48 c 0,-57.69293 -1,-115.28839 -1,-173 0,-17.04327 1.0001,-33.97632 1,-51 -10e-5,-6.09888 1.368,-14.77551 -4.2981,-18.88647 -5.0519,-3.66529 -12.7961,-3.12977 -18.7019,-3.11145 -14.6428,0.0453 -29.3082,0.99792 -44,0.99792 h -174 c -13.9171,0 -28.1154,-0.80994 -42,0.15466 -10.4867,0.72852 -21.9437,3.15198 -30,-5.15466 l 230,-3 c -14.6508,-4.55945 -33.7034,-0.2948 -49,-1.09473 C 1226.7478,721.59106 1182.3491,721 1138,721 l -41,1.2e-4 c -5.925,0.006 -12.7474,-0.3949 -13.6868,7.02063 -1.781,14.05957 11.2242,6.33521 14.5872,16.05432 1.9153,5.5354 -2.6018,16.58252 2.6858,20.24646 12.4383,8.61914 39.371,1.24463 53.4138,0.73194 44.886,-1.6388 90.0624,0.94653 135,0.94653 M 980,739 v 70 l -50,1 1,-71 h 49 m 305,0 v 24 l -181,-1 c 0,-4.96875 -2.459,-19.25793 2.5861,-22.08167 C 1110.3368,737.81909 1116.8505,739 1121,739 h 35 129 m 113,5 -61,-3 c 13.8904,-4.32312 31.5712,-2.00012 46,-2 5.6829,0 13.0326,-1.59094 15,5 m -97,13 1,-11 c 22.4858,2.21155 43.5448,-0.99976 66,-1 4.8575,0 19.3331,-2.44702 22.0735,2.58325 C 1395.7687,758.0376 1376.8251,756 1372,756 c -23.6992,0 -47.3412,1 -71,1 m 75,5 v 89 l -75,1 v -91 c 25.0917,-4.48254 49.834,0.93042 75,1 m 16,184 c -2.9214,-0.0128 -7.5352,0.63568 -9.6393,-1.9184 -2.3612,-2.86615 -1.3605,-8.64331 -1.3607,-12.0816 v -31 c 0,-34.63885 -3.2125,-69.32281 -1.9465,-104 0.2519,-6.90149 -2.0589,-29.7312 4.4221,-33.56458 7.6659,-4.5343 7.5215,8.7146 7.5243,12.56458 l 10e-5,53 c 0,16.02283 0.9728,32.02679 0.9994,48 l 6e-4,69 m -221,3 107,5 c 0,-27.17865 3.894,-54.33881 6.2067,-81 0.9724,-11.21118 -1.5478,-22.51483 -0.1466,-34 1.943,-15.9259 9.7856,-42.65479 1.6159,-57.6485 -3.1932,-5.86053 -16.0243,-4.19482 -21.676,-4.40484 -19.7853,-0.73536 -40.3345,-1.42438 -60,-3.50409 -5.0262,-0.53156 -19.9435,-3.01313 -22.9841,2.14349 -2.8888,4.89917 -1.8665,12.9566 -2.0692,18.41394 -0.4216,11.34387 -1.6989,22.64215 -1.974,34 -0.977,40.33441 -5.9727,80.63831 -5.9727,121 m 112,-166 -2,62 h -1 c -1.7744,-10.23145 -2.3948,-20.66052 -3.1528,-31 -0.2863,-3.90485 -0.01,-10.30072 -2.7649,-13.38623 -3.4842,-3.90149 -10.7516,-1.05072 -15.0823,-0.37799 -10.2402,1.59064 -20.6841,1.84643 -31,2.61163 -5.0905,0.37763 -10.7876,0.14923 -13.6371,5.2959 -3.4791,6.28394 0.9617,15.24402 1.4772,21.85669 1.5611,20.0238 2.4287,39.35895 7.1599,59 19.178,-6.22491 36.2979,-11 57,-11 l -4,73 -100,-5 7,-122 1.7655,-32 2.1528,-11.63904 L 1211,780.00531 1283,783 m -55,97 c -7.2753,-21.34027 -10,-46.5957 -10,-69 l 38,-5 13.4159,-0.0687 3.7916,14.06873 4.7327,39 0.047,14.64099 L 1263,876.06714 1228,880 M 800,813 v 30 h -41 l 1,-20 c -6.17938,5.72144 -5.01868,12.21967 -5,20 h -24 l 4,-16 c -4.73596,6.8031 -5.56268,14.91895 -15,16 l 3,-20 h -4 l -2,20 h -5 l 1,-12 h -1 c -3.03271,13.3078 -15.27399,12.71735 -27,13 l 3,-19 -4,-1 c -1.07672,8.05853 -0.61658,17.55066 -10,20 l 2,-13 h -1 c -3.74139,14.17279 -13.9754,12.9859 -27,13 0.86243,-6.47247 2.92596,-14.57941 -3,-19 v 19 h -25 l 5,-18 h -1 c -3.40326,7.89832 -5.28979,16.88959 -15,18 l 4,-21 h -4 c -0.76855,7.89221 -0.0427,18.24207 -9,21 l 1,-18 h -1 l -2.47565,16.0816 -10.52447,1.91822 L 558,844 557,814 c 19.94824,-4.78973 42.60229,-3 63,-3 38.4176,0 76.66931,1.08978 115,3.09473 21.53918,1.12664 43.66656,3.40924 65,-1.09473 m -65,13 1,1 -1,-1 m -22,2 v 3 h 1 l -1,-3 m -71,19.33331 c 0.77325,0 0.16022,0.49793 -0.33331,0.33338 L 642,847.33331 m 27,0 0.33331,0.33338 c -0.49353,0.16455 -1.10663,-0.33338 -0.33331,-0.33338 M 754,847 l -10,2 10,-2 m -48,1 -1,1 1,-1 m 9,0 -1,1 1,-1 m 9,0.33331 0.33331,0.33338 c -0.49347,0.16455 -1.10663,-0.33338 -0.33331,-0.33338 M 755,850 l 3,16 1.36096,-13.0816 L 770,851.00018 799,851 c 1.16205,6.74219 4.38232,25.24249 -3.29803,28.97137 C 791.0752,882.21771 784.00555,881 779,881 h -36 c -42.04376,0 -83.97931,1 -126,1 -13.38129,0 -26.66052,0.0814 -40,-0.84528 -4.51135,-0.31341 -11.34979,1.20166 -15.41394,-1.07312 C 556.30945,877.12817 558.56226,856.78009 558,851 l 38,1 2,13 c 0.646,-6.13953 1.59167,-11.02533 8,-13 l -3,14 h 1 c 2.18219,-6.18903 2.92352,-12.13806 10,-14 l -4,15 c 5.75641,-2.71808 5.88171,-9.31964 7,-15 l 28,-1 -1,16 3,-16 h 23 l -2,17 c 6.56451,-4.89453 2.76813,-14.16254 12,-17 v 6 h 1 l 1,-6 h 24 l 2,14 2,-14 h 6 v 9 h 1 c 0.19452,-5.53766 1.11481,-8.43884 7,-9 l -3,13 c 2.75012,-3.50165 4.97845,-8.35382 8.52002,-11.09454 C 735.75421,848.08099 747.6095,850 755,850 m 621,7 -1,89 -73,1 -1,-91 75,1 m -697,0 v 4 h 1 l -1,-4 m -1,6 1,1 -1,-1 m 316,10.55621 c -39.93958,6.63691 -20.59735,63.0387 15,57.00171 37.1036,-6.29242 17.8282,-62.45691 -15,-57.00171 m 7,3.96454 c 30.505,-1.41412 30.0662,47.78327 0,49.35748 -32.57776,1.70569 -31.65802,-47.88995 0,-49.35748 M 798,900 v 28 l -39,-1 1,-19 c -6.06989,5.39093 -5.00537,11.4812 -5,19 l -24,1 3,-18 h -1 c -0.63458,8.65741 -3.72394,16.26495 -13,18 l 3,-20 h -4 l -2,20 h -5 v -17 h -1 l -3,16 -23,1 v -19 l -3,19 h -8 l 1,-19 h -1 l -2,19 -24,1 1,-21 h -5 c 0.79425,8.1651 3.992,19.70782 -7,21 v 1 h 4 v 1 h -11 l 1,-2 h -10 v -9 h -1 c -1.74475,5.18915 -4.76282,7.5968 -10,9 l 3,-22 h -4 c -0.75269,7.72913 -1.2e-4,18.57477 -9,21 l 2,-18 h -1 c -0.1701,25.06189 -25.62402,18.00635 -43,18 0,-8.02252 -3.22064,-24.74701 5.16919,-29.41333 5.38916,-2.99738 12.98004,-0.63654 18.83081,-0.59204 14.99817,0.11407 30.00134,0.005 45,0.005 57.04388,0 113.96338,2 171,2 m -177,19 1,1 -1,-1 m -15,11 v 1 h -3 l 3,-1 m 9,0 v 1 h -3 l 3,-1 m 55,1 v 1 h -3 l 3,-1 m 10,0 -1,1 1,-1 m 27,0 v 1 h -7 l 7,-1 m 9,0 -1,1 1,-1 m 296,16 -1,26 -30,0.55737 -11.63904,-1.4754 L 968,949 l 44,-2 m 8,0 -1,26 c -8.6104,-3.41083 -6.1328,-22.12793 1,-26 m 14,26 c -5.3628,-4.8678 -3.5388,-18.99127 -4,-26 9.6781,4.90527 4.3593,17.41626 4,26 m 5,0 -1,-26 c 9.1599,3.20312 10.9263,22.92651 1,26 m 33,-26 v 25 l -23,1 -1,-26 h 24 m -143,1 c 5.57806,7.40265 2.83362,16.44 2,25 h -3 l 1,-25 m 6,25 v -25 c 7.53113,2.80261 7.31879,22.10254 0,25 m 12,-25 -1,26 h -2 c -2.02771,-7.27216 -5.4151,-22.01294 3,-26 m 7,0 c 2.84814,6.95844 3.047,20.62378 -3,26 l 1,-26 h 2 m 6.28802,1.11517 c 6.57227,-2.49048 6.27454,21.8993 1.28534,23.61493 -2.53295,0.87104 -3.34784,-3.17987 -3.66522,-4.77948 -0.84808,-4.27466 -3.16247,-16.73523 2.37988,-18.83545 M 1023,973 c -0.3962,-3.33759 -0.7832,-6.65442 -1.1343,-10 -0.2106,-2.0072 -0.7316,-3.97626 -0.787,-6 -0.061,-2.23486 1.9413,-12.44946 5.8565,-7.51849 3.5091,4.41961 1.5831,21.90435 -3.9352,23.51849 m 368,-11 -89,1 2.5861,-11.02814 L 1325,952 h 45 l 18.4139,0.91809 L 1391,962 m -319,15 v 13 H 928 v -14 l 144,1 m 26,-1 12,29 h -1 c -4.6361,-7.99261 -13.6793,-19.28381 -11,-29 m 216,20 5,4 c -2.9541,-12.58966 -12.8909,-20.07556 -26,-17.79816 -9.6031,1.66834 -22.2842,11.45771 -19.4043,22.64336 1.1846,4.6009 4.3297,19.5222 7.8357,22.231 5.6052,4.3307 20.7932,-0.3606 27.5659,-0.9296 2.746,-0.2306 6.5195,0.063 8.0844,-2.7327 4.19,-7.4868 -0.5713,-20.1666 -3.0817,-27.4139 m 23,2 5,1 c -1.5619,5.8929 -6.1469,13.6283 -4.3585,19.8314 1.2908,4.4771 6.5006,5.2538 10.3586,6.3444 9.7533,2.7568 17.7904,4.824 27.9999,4.8242 l 1,-35 h 1 l 4,11 c 3.16,-12.79657 -12.3689,-24.88678 -24,-24.88092 -10.3903,0.005 -17.7787,7.56866 -21,16.88092 m -230,-12 17,43 h -1 c -5.1078,-11.8544 -17.3184,-29.91302 -16,-43 m 185.0001,3.56171 c 12.5558,-2.91474 21.3792,5.09564 21.9458,17.43829 0.2414,5.2576 2.5397,13.2255 -4.0499,14.8999 -5.3143,1.3503 -20.2271,6.0167 -24.9674,2.6855 -11.0781,-7.785 -5.1791,-32.17982 7.0715,-35.02369 m 62.0059,0.0688 c 14.8894,-4.07788 25.2453,8.32788 22.1725,22.36949 -0.8706,3.9781 -1.9821,11.9425 -6.5804,13.3173 -4.4992,1.3451 -24.2746,-1.5353 -27.1837,-5.3406 -6.1622,-8.0604 2.7871,-27.93481 11.5916,-30.34619 M 395,1016 v 4 h 20 v 24 l -13,-2 v 1 c 6.99918,1.3883 11.64694,4.766 13,12 l -20,-3 c 3.20108,6.7563 13.43488,5.9153 20,6 v 6 h -7 v 1 c 10.8082,3.2495 8.18134,16.134 7,25 -6.76489,-0.4875 -12.59085,-3.2581 -18,2 7.90906,0.1021 17.51788,-0.7622 18,9 l -18,-1 v 1 l 18,2 1,24 -21,-1 c 6.15375,6.2961 12.94165,4.7839 21,4 v 25 l -8,-1 v 1 c 4.80917,2.1146 7.02954,4.8313 8,10 l -21,-3 v 5 c 7.92603,0.01 16.33234,-0.4274 21,7 h -11 v 1 c 13.95532,1.8489 11.45239,15.0999 10,26 l -31,-1 2,-206 c 7.32001,-0.48169 19.15118,-4.13031 25.67609,0.26819 5.79065,3.9035 6.26757,17.53291 0.0259,21.25071 -4.53431,2.7008 -11.67438,0.546 -16.702,0.4811 M 1314,995 l -1,1 1,-1 m -35,4 -1,1 1,-1 m -163,18 1,4 h -1 v -4 m -21,87 -53,-1 v -37 c 13.2311,0.5632 24.9868,5.9552 37,11 -4.1525,-5.0227 -9.1526,-5.6544 -10,-13 h -1 l -10,-1 7,-25 c 13.4863,3.6 6.1194,16.2185 4,26 h 1 c 2.6897,-6.6686 3.1572,-18.2885 7.2291,-23.6465 2.3188,-3.051 8.9413,-4.4864 10.5591,0.138 1.1538,3.2978 -1.1882,8.1918 -1.7882,11.5085 h 1 l 4,-15 c -8.7339,-2.1959 -17.2981,-5.0475 -26,-7.3651 -2.9723,-0.7916 -7.395,-2.6536 -10.1898,-0.5336 -7.7846,5.9048 -7.3541,25.312 -11.8102,33.8987 -2.0312,-8.5583 -3.6647,-35.2512 5.2568,-40.3156 6.3155,-3.585 15.9478,-0.3132 22.7432,0.1609 5.9121,0.4124 15.6191,-1.3036 19.9713,3.8256 4.171,4.9158 2.0287,16.3013 2.0287,22.3291 0,18.0752 -1.8658,37.2484 2,55 m -146.00001,-74 c 0.65601,15.7675 5.13464,31.1487 5.22449,47 0.0328,5.7911 -2.94532,14.5148 0.90387,19.5081 3.68036,4.7742 10.77307,2.6384 15.87164,2.5195 12.65887,-0.2954 25.4325,0.9862 38.00001,2.4097 4.7811,0.5415 11.5206,1.7529 14.7938,-2.7889 6.8227,-9.4668 -0.472,-27.0922 -0.6454,-37.6484 -0.1266,-7.702 5.5013,-22.168 -1.6809,-27.9714 -5.3008,-4.283 -14.333,-1.1524 -20.4675,-1.3578 C 983.63226,1031.0892 966.40717,1030 949,1030 m 113,1 -9,34 -6,-1 c 1.1219,-9.1611 4.0801,-31.9619 15,-33 m -104,65 2,-59 39,-2.9994 17.4269,2.0151 3.7539,10.9844 -1.41,33.9999 -2.689,12.639 L 1000,1095 l -42,1 m 118,-58 -8,-4 c 3.8998,0.087 6.4698,0.1355 8,4 m -677,3 1,1 -1,-1 m 678,9 v 1 l 5,1 -2,8 -1,14 h 1 l 6,-22 -9,-2 m 26,34 7,-31 c 8.8192,1.5295 19.6725,0.9464 26.6221,7.5596 8.4547,8.0454 4.2606,24.9251 -6.6281,28.5664 -8.8229,2.9504 -18.8941,-1.9976 -26.994,-5.126 m 330,-31 c 0,31.7633 1.3234,63.3164 2.0076,95 0.2356,10.9081 3.7382,26.832 -11.0076,29 l 1,-124 h 8 m -15,10 1,-3 h 1 l 1,112 h -1 l -2,-94 h -1 l -2,100 c -16.2312,-1.0571 -11.6953,-18.5149 -11.0947,-30 1.6242,-31.0588 -0.9053,-62.8335 -0.9053,-94 8.0543,0.013 12.3572,0.7855 15,9 m 2,-9 -1,1 1,-1 m -364.3334,11.6667 -0.3332,0.6666 0.3332,-0.6666 M 1065,1068 v 1 l -7,-1 1,-3 6,3 m -645,15 -2,8 2,-8 m 714,7 v 1 h -3 l 3,-1 m -905,4 c -7.52281,8.1133 -22.10199,-2.8979 -30,9 8.03407,0 25.69084,-3.5676 30.06415,5.1433 3.2131,6.4 0.93631,15.9124 0.93585,22.8567 v 54 c 0,66.0215 -2,131.9666 -2,198 l -10,1 v 5 l 16,4 v -3 h 227 l -3,-23 -2.50924,-4.0246 L 455,1386 234,1383 c 0,-92.9326 -5.10379,-186.2798 1,-279 l 114,-3 20.12318,-10.0554 L 260,1097.2345 229,1094 m 191,4 -1,1 1,-1 m 506,33 c 23.86847,-4.4221 46.99634,-1 71,-1 l -1,218 -10.6391,-2.8649 L 984,1332 v -34 l -1,-162 c -15.96918,0 -32.04193,-0.5327 -48,0.053 -9.63739,0.3541 -17.91827,3.582 -27,-1.0535 -0.94031,4.3881 -5.31482,2.7166 -9,3.0833 -7.03821,0.7006 -19.36053,2.1679 -21,-7.0833 h 40 v -21 c 10.54224,2.7202 8.3537,12.4535 8,21 m -506,-17 -2,8 2,-8 m 624,74 1,-67 c 22.3101,0 44.6472,-0.918 67,-1.002 6.8434,0.054 21.4636,0.1678 25.1254,0.2757 4.797,0.1414 1.8746,10.7614 1.8746,14.7258 0,12.7849 0.1997,25.2783 1.5566,38 0.5259,4.9307 1.2381,11.4379 -3.8134,14.3162 -7.1051,4.0483 -18.909,0.6855 -26.7432,0.6838 -22.2457,-1.4742 -44.6608,-3.9645 -66,0 m 238,-67 -2,30 h 1 c 2.6686,-0.1152 2.2118,-15.6821 6.6508,-24.479 3.2616,-6.4637 22.4078,2.4644 29.3492,3.479 -0.1904,7.8923 -0.5063,18.1924 -5.0879,24.9275 -8.022,11.793 -23.0369,6.8965 -29.9121,-2.9275 h -1 v 3 h -1 l -4,-11 h -1 c 2.0669,25.8602 39.0795,37.5997 46,8 l -5,-1 c 4.398,-1.9092 6.4308,-13.1593 4.052,-18.8314 -4.0252,-9.598 -29.2288,-11.8131 -38.052,-11.1686 m 74,2.3915 c 20.7513,-2.9567 22.5322,34.8807 2.9999,37.2698 -14.4215,1.7639 -27.9696,-18.0108 -20.1331,-30.9909 2.5418,-4.2101 12.6419,-5.6389 17.1332,-6.2789 m -1066.99802,21.2971 c -19.53521,4.8014 -13.17855,36.8169 6.99787,32.3065 21.39621,-4.7829 13.97027,-37.4602 -6.99787,-32.3065 m 1.99863,3.9008 c 16.15906,-2.0398 21.0351,25.2547 3.99728,27.133 -16.88638,1.8616 -21.30188,-24.9486 -3.99728,-27.133 M 1375,1149 l -1,1 1,-1 m -957,3 v 4 h -1 l 1,-4 m 921,1 11,11 v 1 c -5.3513,-2.0776 -10.6907,-5.8091 -11,-12 m -1048.80521,2.0771 c -7.72454,3.1634 -2.22863,15.2765 5.47013,11.8586 7.47699,-3.3195 1.92617,-14.8874 -5.47013,-11.8586 M 755,1157 v 1 h -18 v 20 h -1 v -21 h 19 m 15,0 v 19 h -1 v -3 l -20,6 c 13.12512,1.4694 11.91309,9.8269 13,21 h -20 v 1 l 21,1 v -16 l 7,-3 h 1 c 0.33734,5.1262 2.72656,12.9764 -1.02869,17.3162 -4.60797,5.3252 -27.34387,5.7526 -32.38525,0.9201 C 734.18701,1197.978 735.0022,1192.2703 735,1188 h 1 l 3,11 h 1 l -2,-40 32,-2 m -478.4426,3.1069 c 3.12448,-1.2915 5.6095,3.6763 2.12143,4.6321 -2.75973,0.7564 -5.0925,-3.404 -2.12143,-4.6321 M 418,1163 l -1,1 1,-1 m 520,4 v 1 h 26 l -26,-1 m -176,11 v 1 h -5 l 5,-1 m 5,2 v 3 h -1 l 1,-3 m 209,10 v 4 h -1 l -2,-4 h 3 m 110,7 c -9.01,0 -40.1573,4.8322 -42,-6 12.1647,-0.157 34.2767,-6.3127 42,6 m 53,-5 c -3.8982,5.5156 -9.7935,4.9956 -16,4.9999 l -34,10e-5 c 3.0706,-6.9238 9.5273,-5.7853 16,-5.2344 11.2164,0.9546 22.7462,0.2344 34,0.2344 m -172,4 v 3 h -22 v -3 h 22 m 4,5 v 7 c 4.20911,-1.108 5.89197,-2.7908 7,-7 h 1 c 4.62207,10.2444 2.71313,21.1633 2,32 h -29 v -1 c 4.28839,0 9.79327,0.7429 13.62213,-1.5861 7.95892,-4.841 4.11554,-21.831 3.37787,-29.4139 h 2 m 5,0 -2,4 -1,-4 h 3 m -705,3 v 65 h 3 v -7 h 8 c -3.52933,-4.7644 -10.23148,-8.8186 0,-10 l -8,-4 v -6 h 8 l -8,-4 v -5 l 8,-1 v -3 c -4.57315,-1.9185 -3.7204,-4.4912 0,-7 v -2 c -3.72043,-2.5088 -4.57312,-5.0815 0,-7 l -11,-9 m 521,33 v 8 h -1 l 1,-8 m -77.99939,3.5447 c 19.1496,-2.1881 25.0896,38.379 3.99927,41.0926 -4.76105,0.6127 -12.41986,1.549 -16.06616,-2.3211 -9.02143,-9.5752 -1.49695,-37.2215 12.06689,-38.7715 M 735,1251 l 1.68972,2.1996 c -1.44232,7.2626 0.77923,28.1642 -1.93478,23.834 l -0.4664,-27.4565 M 982,1264 v 84 H 793 l 1,-38 h 1 c 1.99982,9.7448 0.0366,21.2952 8.13794,28.6274 9.79217,8.8627 26.46201,5.389 38.40274,5.3883 29.6795,0 58.93579,-0.9843 88.55981,-0.9843 l 9.00826,-1.0628 c -30.60791,-0.033 -69.89912,-2.0193 -100.56807,-0.8994 -11.15027,0.4072 -28.9639,4.0111 -36.35294,-7.1417 -7.01403,-10.5868 2.2638,-14.4464 3.81226,-23.9275 h 9 c 0.34827,7.781 2.50647,14.6119 11.00214,16.4147 14.21063,3.0155 30.51214,0.3955 44.99786,0.5982 15.9491,0.2232 32.03479,3.24 48,1.6546 10.43256,-1.0359 22.21277,-0.6143 28.32825,-10.6977 6.49029,-10.7012 3.74682,-27.6328 -9.32886,-31.981 C 929.41534,1283.1342 917.96112,1285 909,1285 h -60 c -10.27649,0 -22.65588,-2.1565 -31,5 16.2041,-5.8691 34.18872,-2.248 51,-2.0129 14.79565,0.207 29.64709,0.2409 44.44257,0.1231 7.69891,-0.061 15.99646,-1.6401 23.55188,0.1748 13.14996,3.159 14.51226,23.4928 6.31909,32.3372 C 937.00922,1327.4275 924.36816,1325 916,1325 h -73 l 7,-10 c -9.66724,7.0059 -20.61615,5.4694 -27,-5 l 8,-1 v -1 h -5 v -1 l 8,-1 v -1 l -12,-2 c 3.94031,-10.9001 18.04187,-16.2971 26.1261,-5.7727 3.26337,4.2483 2.86792,9.7148 2.8739,14.7727 h 1 c 1.11621,-12.2821 -4.92291,-26.2113 -19.99939,-20.9512 -6.18188,2.157 -10.08972,7.9479 -15.00061,11.9512 l -1,-7 h -1 v 7 h -8 c -2.93054,-10.876 -13.87421,-16.3575 -0.81018,-27.4238 C 818.27161,1265.342 847.98657,1271 863,1271 c 16.99481,0 34.0069,0.2249 51,-0.013 25.24579,-0.3531 51.18878,0.5073 52.89453,33.0129 0.35858,6.8328 -1.47284,13.3848 -2.89453,20 h 1 c 1.65784,-6.6035 3.75842,-13.0914 3.50739,-20 -0.15851,-4.361 -0.94471,-8.9292 -2.53083,-13 -10.0683,-25.8405 -34.52478,-22.3269 -56.97656,-22.0129 -14.66077,0.205 -29.33771,0.013 -44,0.013 -16.50281,0 -40.53754,-4.394 -55.99792,1.8391 -15.9372,6.4255 -5.15394,22.9381 -16.00208,31.1609 v -38 h 189 m -251,21 c -7.75562,7.6641 -22.17212,7.5544 -30,0 h 30 m 360,62 v -1 c 7.6823,-1.8413 8.7756,-5.7882 12.7434,-12.0006 3.0468,-4.7704 7.8912,-9.1713 8.794,-14.9994 2.0333,-13.1278 -12.7491,-24.1501 -24.5374,-24.6498 -20.104,-0.852 -27.8322,25.3406 -10,34.6498 -1.6108,-3.8647 -3.5131,-7.7502 -3.7522,-12 -0.1727,-3.0696 0.4617,-6.2141 1.8387,-8.9663 14.368,-28.7166 50.574,19.262 17.9135,24.9663 0,-9.6139 0.4218,-17.23 -6,-25 l -1,26 -4,-1 c -0.5026,2.8346 -3.8174,0.8049 -6,0 l 9,13 v 1 h -43 c 0,-14.6927 -0.9751,-29.354 -0.9994,-44 -0.01,-3.8309 -1.4353,-11.6804 2.5855,-13.9714 C 1049.827,1286.0424 1060.1273,1288 1066,1288 h 54 196 c 19.6335,0 39.3147,-1 59,-1 5.3654,0 17.7552,-2.2838 22.0688,1.361 2.5964,2.1937 1.278,6.7568 1.0851,9.6392 -0.5356,8.0049 0.1344,16.0032 -0.7113,23.9998 -0.6051,5.7217 2.26,20.6874 -2.4713,24.639 -4.76,3.9757 -19.0257,1.361 -24.9713,1.361 h -69 -81 c -43.0366,0 -85.9995,-1 -129,-1 m 173,-56 v 1 l 58,2 -1,48 h -54 l -1.9724,-27 -1.0276,-20 h -1 l -1,47 h -5 v 4 l 68,-2 3,-55 -64,2 m -568.95679,-0.4707 c 8.9729,-2.2371 18.0036,2.3752 26.95679,2.0519 4.75342,-0.1717 10.16724,-2.7501 14.80121,-0.6574 8.24701,3.7245 0.98932,15.2864 -4.83496,17.3078 -8.30554,2.8823 -29.75104,2.4259 -37.73896,-1.2602 -7.4168,-3.4226 -7.5437,-15.3579 0.81592,-17.4421 M 817,1290 l -1,2 1,-2 m 458.0725,5.9495 c -12.1673,4.2583 -4.8408,24.3067 6.8919,19.8713 12.2564,-4.6333 5.4919,-24.2053 -6.8919,-19.8713 m 27.9625,-0.069 c -14.1154,4.7093 -5.6875,27.2718 7.9494,23.2954 14.6933,-4.2841 6.4338,-28.0941 -7.9494,-23.2954 m -24.035,4.1404 c 8.5837,-0.2787 8.2996,13.6719 0.01,14.2914 -8.6862,0.6489 -8.502,-14.0158 -0.01,-14.2914 M 803,1300 v 5 h -1 l 1,-5 m 511,2 c 4.9811,13.9719 -10.554,19.8105 -16,6 l 7,5 c -1.4027,-11.818 10.8436,-3.002 0,0 v 1 c 7.9747,-0.4395 7.0466,-5.8099 9,-12 m -518,4 -1,1 1,-1 m 19,1 v 1 h -5 l 5,-1 m -11,3 v 4 h -3 v -4 h 3 m 15,1 10,14 c -7.64996,-1.0112 -14.31293,-5.8145 -10,-14 m 31.33331,2.6666 0.33338,0.6668 -0.33338,-0.6668 M 768,1317 l 1,32 -114,-2 1,-33 112,3 m 510.1433,6.0643 c -9.3923,3.8191 -2.2945,18.5373 6.714,14.8714 9.5592,-3.89 2.4446,-18.5954 -6.714,-14.8714 m 29.9718,-0.1159 c -10.5937,3.0868 -3.8137,19.1742 5.783,15.7924 9.3913,-3.3094 3.4944,-18.4957 -5.783,-15.7924 M 272,1323 v 15 h -1 l 1,-15 m 691,1 c -4.48132,7.9508 -10.20294,14.0559 -19,17 l -5.0308,2.0376 C 947.04293,1341.15 962.71045,1333.1892 963,1324 m 319.8157,3.5577 c 5.23,1.0966 3.7585,9.7292 -1.6914,8.6596 -5.3684,-1.0536 -3.5667,-9.7621 1.6914,-8.6596 m 26.5968,0.4627 c 5.5637,-2.2963 8.5135,6.8207 3.2708,8.9592 -5.5551,2.266 -8.4422,-6.8248 -3.2708,-8.9592 M 1091,1328 v 6 h -1 l 1,-6 m -13,1 5,4 v -1 l -5,-3 m -2,3 1,1 -1,-1 m 11,7 1,2 -1,-2 M 943.84214,1341.0882 939,1343 h 4 l -12.74561,-0.015 M 0,1753 v 1 h 3 z"
       id="path1" />
  </g>
</svg>
